Coordinates
version=1
nRows=5
nColumns=46
inDegrees=yes

Units are S.I. units (second, meters, Newtons, ...)
Angles are in degrees.

endheader
time	pelvis_tilt	pelvis_list	pelvis_rotation	pelvis_tx	pelvis_ty	pelvis_tz	bb_angle	bb_tx	bb_ty	bb_tz	hip_flexion_r	hip_adduction_r	hip_rotation_r	knee_angle_r	knee_angle_r_beta	ankle_angle_r	subtalar_angle_r	mtp_angle_r	crank_angle_r	hip_flexion_l	hip_adduction_l	hip_rotation_l	knee_angle_l	knee_angle_l_beta	ankle_angle_l	subtalar_angle_l	mtp_angle_l	crank_angle_l	lumbar_extension	lumbar_bending	lumbar_rotation	arm_flex_r	arm_add_r	arm_rot_r	elbow_flex_r	pro_sup_r	wrist_flex_r	wrist_dev_r	arm_flex_l	arm_add_l	arm_rot_l	elbow_flex_l	pro_sup_l	wrist_flex_l	wrist_dev_l
      2.50000000	    -30.74344767	      5.02887904	      8.71191236	      0.35853353	      1.19890132	     -0.31538804	      0.00000000	      0.50000000	      0.00000000	      0.25000000	     29.97771810	    -15.05594153	    -15.31761561	     12.20640697	      0.21304199	    -33.30467838	      7.67708607	      0.00000000	      0.00000000	     81.23774130	      5.74499444	     -0.83708612	     98.82692138	      1.72485517	      9.34072724	     -6.88365537	      0.00000000	      0.00000000	    -48.28520358	      0.72485654	    -22.31287332	     50.23873637	     -5.52633774	     27.13871745	     62.35254246	     46.75458349	      0.00000000	      0.00000000	     35.59924813	    -36.06270603	     17.98653979	     84.40232337	     53.74013052	      0.00000000	      0.00000000
      2.50500000	    -31.13398261	      4.96201343	      8.91040549	      0.35811800	      1.19976329	     -0.31629757	      0.00000000	      0.50000000	      0.00000000	      0.25000000	     30.48683938	    -15.13909841	    -14.51373467	     13.17197411	      0.22989432	    -32.96108332	      6.70168104	      0.00000000	      0.00000000	     81.36268010	      5.85735342	     -0.90512247	     97.93244155	      1.70924355	     10.87612323	     -6.32628392	      0.00000000	      0.00000000	    -48.16643129	      0.86223522	    -22.55473130	     50.30126194	     -5.29833462	     26.76792071	     62.42147737	     46.74835543	      0.00000000	      0.00000000	     35.61437978	    -36.31335908	     18.07339918	     84.76151065	     53.80293626	      0.00000000	      0.00000000
      2.51000000	    -31.42426398	      4.81725587	      8.99365087	      0.35772710	      1.20053606	     -0.31762716	      0.00000000	      0.50000000	      0.00000000	      0.25000000	     31.05095331	    -15.14375309	    -13.76617736	     14.42004074	      0.25167719	    -32.36630099	      5.64783373	      0.00000000	      0.00000000	     81.34967457	      5.92828178	     -0.86950499	     96.98132875	      1.69264350	     12.30734530	     -5.89854282	      0.00000000	      0.00000000	    -48.13012555	      1.06781452	    -22.58844071	     50.42005327	     -5.23975170	     26.52612869	     62.48941268	     46.74834060	      0.00000000	      0.00000000	     35.67082049	    -36.32751359	     18.07174772	     85.04480233	     53.84312564	      0.00000000	      0.00000000
      2.51500000	    -31.52173861	      4.60357025	      9.26062322	      0.35765771	      1.20159285	     -0.31893398	      0.00000000	      0.50000000	      0.00000000	      0.25000000	     31.28179787	    -15.11350908	    -13.15566310	     15.58072494	      0.27193495	    -31.84093560	      4.69853197	      0.00000000	      0.00000000	     81.07869219	      6.14266705	     -0.75490561	     95.94137681	      1.67449291	     13.75230068	     -5.95640299	      0.00000000	      0.00000000	    -48.23895913	      1.53964281	    -22.62252333	     50.56967740	     -5.23773522	     26.39931872	     62.54027725	     46.74629568	      0.00000000	      0.00000000	     35.76763192	    -36.28548462	     18.07434839	     85.17274203	     53.86081726	      0.00000000	      0.00000000
      2.52000000	    -31.73485573	      4.72960864	      9.46573132	      0.35763781	      1.20263663	     -0.31892609	      0.00000000	      0.50000000	      0.00000000	      0.25000000	     31.89452493	    -15.28979307	    -12.24247819	     17.26398882	      0.30131345	    -30.98550208	      2.86263557	      0.00000000	      0.00000000	     80.74656918	      6.21900085	     -0.93127363	     94.65462148	      1.65203480	     15.20695811	     -4.94811895	      0.00000000	      0.00000000	    -48.36201550	      1.38966387	    -22.77949130	     50.23542030	     -5.15015989	     25.54182358	     63.11723245	     46.67169329	      0.00000000	      0.00000000	     35.96750703	    -36.06710690	     17.91066968	     85.53352649	     53.53436341	      0.00000000	      0.00000000
